<svg width="64" height="64" viewBox="0 0 64 64" fill="none" xmlns="http://www.w3.org/2000/svg">
<path d="M13.872 7.61861C21.2107 13.1253 29.1013 24.2933 32 30.2879C34.8987 24.2959 42.7893 13.1253 50.128 7.61861C55.4213 3.64261 64 0.56794 64 10.3546C64 12.3066 62.88 26.7706 62.2213 29.1199C59.9387 37.2826 51.6133 39.3653 44.208 38.1066C57.152 40.3093 60.4453 47.6053 53.3333 54.9039C39.8267 68.7599 33.92 51.4266 32.408 46.9839C32.1307 46.1706 32.0027 45.7893 32 46.1119C32 45.7893 31.8667 46.1706 31.592 46.9839C30.0773 51.4266 24.1733 68.7599 10.6667 54.9039C3.55467 47.6053 6.848 40.3093 19.792 38.1039C12.3867 39.3653 4.06133 37.2826 1.77867 29.1199C1.12 26.7733 0 12.3066 0 10.3546C0 0.56794 8.57867 3.64261 13.872 7.61861Z" fill="white"/>
</svg>
