<svg width="64" height="64" viewBox="0 0 64 64" fill="none" xmlns="http://www.w3.org/2000/svg">
<path d="M31.6416 10.8795C38.7982 10.8795 39.7741 10.8795 42.7018 10.8795C45.3043 10.8795 46.6055 11.5301 47.5814 11.8554C48.8826 12.506 49.8585 12.8313 50.8344 13.8072C51.8103 14.7831 52.4609 15.759 52.7862 17.0602C53.1115 18.0361 53.4368 19.3374 53.7621 21.9398C53.7621 24.8675 53.7621 25.5181 53.7621 33C53.7621 40.4819 53.7621 41.1325 53.7621 44.0602C53.7621 46.6627 53.1115 47.9639 52.7862 48.9398C52.1356 50.241 51.8103 51.2169 50.8344 52.1928C49.8585 53.1687 48.8826 53.8193 47.5814 54.1446C46.6055 54.4699 45.3043 54.7952 42.7018 55.1205C39.7741 55.1205 39.1235 55.1205 31.6416 55.1205C24.1597 55.1205 23.5091 55.1205 20.5814 55.1205C17.979 55.1205 16.6777 54.4699 15.7018 54.1446C14.4006 53.494 13.4247 53.1687 12.4488 52.1928C11.4729 51.2169 10.8223 50.241 10.497 48.9398C10.1717 47.9639 9.84642 46.6627 9.52112 44.0602C9.52112 41.1325 9.52112 40.4819 9.52112 33C9.52112 25.5181 9.52112 24.8675 9.52112 21.9398C9.52112 19.3374 10.1717 18.0361 10.497 17.0602C11.1476 15.759 11.4729 14.7831 12.4488 13.8072C13.4247 12.8313 14.4006 12.1807 15.7018 11.8554C16.6777 11.5301 17.979 11.2048 20.5814 10.8795C23.5091 10.8795 24.485 10.8795 31.6416 10.8795ZM31.6416 6C24.1597 6 23.5091 6 20.5814 6C17.6537 6 15.7018 6.6506 14.0753 7.30121C12.4488 7.95181 10.8223 8.92771 9.19582 10.5542C7.56931 12.1807 6.91871 13.4819 5.94281 15.4337C5.29221 17.0602 4.9669 19.0121 4.6416 21.9398C4.6416 24.8675 4.6416 25.8434 4.6416 33C4.6416 40.4819 4.6416 41.1325 4.6416 44.0602C4.6416 46.988 5.29221 48.9398 5.94281 50.5663C6.59341 52.1928 7.56931 53.8193 9.19582 55.4458C10.8223 57.0723 12.1235 57.7229 14.0753 58.6988C15.7018 59.3494 17.6537 59.6747 20.5814 60C23.5091 60 24.485 60 31.6416 60C38.7982 60 39.7741 60 42.7018 60C45.6296 60 47.5814 59.3494 49.2079 58.6988C50.8344 58.0482 52.4609 57.0723 54.0874 55.4458C55.7139 53.8193 56.3645 52.5181 57.3404 50.5663C57.991 48.9398 58.3163 46.988 58.6416 44.0602C58.6416 41.1325 58.6416 40.1566 58.6416 33C58.6416 25.8434 58.6416 24.8675 58.6416 21.9398C58.6416 19.0121 57.991 17.0602 57.3404 15.4337C56.6898 13.8072 55.7139 12.1807 54.0874 10.5542C52.4609 8.92771 51.1597 8.27711 49.2079 7.30121C47.5814 6.6506 45.6296 6.3253 42.7018 6C39.7741 6 39.1235 6 31.6416 6Z" fill="white"/>
<path d="M31.6416 19.012C23.8344 19.012 17.6537 25.1928 17.6537 33C17.6537 40.8072 23.8344 46.988 31.6416 46.988C39.4488 46.988 45.6296 40.8072 45.6296 33C45.6296 25.1928 39.4488 19.012 31.6416 19.012ZM31.6416 42.1084C26.7621 42.1084 22.5332 38.2048 22.5332 33C22.5332 28.1205 26.4368 23.8916 31.6416 23.8916C36.5211 23.8916 40.75 27.7952 40.75 33C40.75 37.8795 36.5211 42.1084 31.6416 42.1084Z" fill="white"/>
<path d="M45.9549 21.9398C47.7514 21.9398 49.2079 20.4833 49.2079 18.6868C49.2079 16.8902 47.7514 15.4337 45.9549 15.4337C44.1583 15.4337 42.7018 16.8902 42.7018 18.6868C42.7018 20.4833 44.1583 21.9398 45.9549 21.9398Z" fill="white"/>
</svg>
