<svg width="64" height="64" viewBox="0 0 64 64" fill="none" xmlns="http://www.w3.org/2000/svg">
<path d="M56.8889 49.7778H7.11111C3.18933 49.7778 0 52.9671 0 56.8889C0 60.8107 3.18933 64 7.11111 64H56.8889C60.8107 64 64 60.8107 64 56.8889C64 52.9671 60.8107 49.7778 56.8889 49.7778ZM56.8889 24.8889H7.11111C3.18933 24.8889 0 28.0782 0 32C0 35.9218 3.18933 39.1111 7.11111 39.1111H56.8889C60.8107 39.1111 64 35.9218 64 32C64 28.0782 60.8107 24.8889 56.8889 24.8889ZM56.8889 0H7.11111C3.18933 0 0 3.18933 0 7.11111C0 11.0329 3.18933 14.2222 7.11111 14.2222H56.8889C60.8107 14.2222 64 11.0329 64 7.11111C64 3.18933 60.8107 0 56.8889 0Z" fill="white"/>
</svg>
