<svg width="64" height="64" viewBox="0 0 64 64" fill="none" xmlns="http://www.w3.org/2000/svg">
<path d="M47.8967 11.1751C45.6303 8.53014 44.3811 5.13404 44.3814 1.61841H34.1339V43.6406C34.0566 45.9152 33.1176 48.0702 31.5151 49.6508C29.9126 51.2315 27.7719 52.1142 25.5447 52.1129C20.8355 52.1129 16.9222 48.1817 16.9222 43.3017C16.9222 37.4729 22.4273 33.1012 28.0982 34.8973V24.1884C16.6569 22.6295 6.6416 31.7117 6.6416 43.3017C6.6416 54.5867 15.7947 62.6184 25.5115 62.6184C35.9248 62.6184 44.3814 53.9767 44.3814 43.3017V21.9856C48.5367 25.0351 53.5257 26.6713 58.6416 26.6623V16.1906C58.6416 16.1906 52.4069 16.4956 47.8967 11.1751Z" fill="white"/>
</svg>
