<svg width="78" height="19" viewBox="0 0 78 19" fill="none" xmlns="http://www.w3.org/2000/svg">
<path d="M21.4502 2.48265C18.6819 -0.596881 13.9455 -0.845511 10.871 1.9273C9.35132 3.2979 8.52211 5.15022 8.40651 7.0451C8.24274 6.8505 8.09178 6.6663 7.95593 6.49734C7.72938 6.21552 7.55082 5.98338 7.43222 5.8263C7.37303 5.74788 7.29929 5.64792 7.27216 5.61102C5.97688 3.8097 3.46884 3.40008 1.66971 4.69686C-0.13084 5.9946 -0.537966 8.5082 0.756333 10.3099C0.802205 10.3723 0.947844 10.5705 1.02852 10.6774C1.18963 10.8908 1.41846 11.1879 1.70251 11.5412C2.26579 12.2419 3.06916 13.1921 4.01041 14.1575C4.93518 15.1061 6.0866 16.1665 7.35099 17.0162C8.52331 17.804 10.294 18.7566 12.3578 18.7566C14.4644 18.7566 16.2146 17.7706 17.3664 16.9393C18.591 16.0553 19.666 14.9598 20.5086 13.9939C21.3679 13.0088 22.0861 12.0416 22.5847 11.3306C22.8365 10.9715 23.1072 10.5631 23.2493 10.3453C23.274 10.3074 23.2281 10.3781 23.2493 10.3453L24.3866 15.0948C24.5572 15.9293 24.9501 16.5797 25.5311 17.1566C26.2641 17.8843 27.1786 18.2051 27.9403 18.356C28.423 18.4472 29.2069 18.4963 29.5529 18.4824C29.9088 18.4681 30.4239 18.4136 30.8423 18.3038C31.8279 18.0272 32.5863 17.413 33.1051 16.6502L35.6875 12.0581C35.7443 12.3434 35.8124 12.6245 35.8925 12.9008C36.2114 13.934 36.712 14.9378 37.4001 15.7712C38.1171 16.6005 39.0322 17.2834 40.0326 17.7203C41.0644 18.153 42.2064 18.3493 43.3307 18.3493C44.1751 18.3493 45.0617 18.2537 45.8868 17.9504C45.9063 17.9438 45.9277 17.9366 45.9379 17.933C45.95 17.9288 45.9619 17.9245 45.9885 17.9147L46.0332 17.9348C46.0787 17.9554 46.0828 17.9572 46.1527 17.9819C46.7432 18.2252 47.3167 18.2651 47.7075 18.2651C48.0719 18.2651 48.6197 18.2329 49.1886 18.0175C49.6013 17.8723 50.1729 17.59 50.6434 17.0242L50.7502 16.887C50.8311 16.7759 50.9066 16.6579 50.9754 16.5334C51.7678 17.2634 52.7121 17.7868 53.7385 18.1158C54.7629 18.4377 55.8492 18.5833 56.9758 18.5833C57.8208 18.5833 58.6047 18.4885 59.4377 18.28C60.3143 18.0845 61.153 17.7724 61.9041 17.3018C62.0125 17.234 62.1251 17.1608 62.2396 17.0814C62.4342 17.3524 62.6798 17.6069 62.9889 17.8302C63.8066 18.422 64.7332 18.5833 65.5131 18.5833C66.2314 18.5833 67.3605 18.4787 68.2692 17.7391C68.8269 17.279 69.1569 16.7163 69.3384 16.1587C69.5415 16.7612 69.9183 17.3434 70.5478 17.7985C71.3655 18.3904 72.2921 18.5516 73.072 18.5516C73.7903 18.5516 74.9224 18.4444 75.8311 17.7047C76.75 16.9471 77.0992 15.9236 77.0992 14.9155V8.9C77.0992 8.036 76.9998 7.1496 76.9458 6.78288C76.8183 5.71164 76.4037 4.76244 75.7514 3.9081C75.1476 3.15828 74.3815 2.54233 73.5009 2.13863C72.5527 1.66479 71.5727 1.53215 70.5442 1.53215C69.5187 1.53215 68.5154 1.73273 67.5923 2.19118C66.943 1.85833 66.2475 1.71376 65.5587 1.71376C64.7225 1.71376 63.4645 1.91536 62.5486 2.89027C62.3689 3.0939 62.2174 3.31014 62.091 3.53424C60.642 2.13476 58.7963 1.53215 56.7532 1.53215C55.463 1.53215 54.1995 1.76835 53.0664 2.31314C52.068 2.80295 51.1938 3.4689 50.4871 4.32096C50.4612 4.2693 50.4341 4.21818 50.4059 4.16766C50.1835 3.744 49.8531 3.30108 49.5419 2.96028C48.7769 2.22007 47.8325 1.56998 46.8243 1.19881C45.8514 0.84067 44.8109 0.696459 43.7554 0.696459C42.4333 0.696459 41.1322 0.93028 39.9573 1.52648C39.6048 1.70537 39.2679 1.90651 38.9486 2.13025C38.8566 1.99725 38.7567 1.87102 38.6505 1.75223C37.9489 0.93813 37.031 0.543109 36.1902 0.372319C35.5252 0.237229 34.6701 0.191939 33.7925 0.586339C32.9393 0.960049 32.3944 1.60645 32.0571 2.16321L30.2774 5.49636L29.9308 3.9489C29.7998 3.14586 29.418 2.43766 28.847 1.88861C28.188 1.24426 27.3913 0.97207 26.7687 0.8487C25.9899 0.69442 24.98 0.65747 23.9986 1.1381C23.1043 1.57606 22.4453 2.33395 22.1539 3.29148C21.9974 3.09516 21.8362 2.90766 21.6727 2.73029L21.4502 2.48265Z" fill="url(#paint0_linear_54_145)"/>
<path fill-rule="evenodd" clip-rule="evenodd" d="M35.4018 2.34131C35.0522 2.27032 34.7582 2.28637 34.5217 2.39267C34.3029 2.48849 34.1063 2.6788 33.9359 2.95832L28.9995 12.2246L27.1442 3.85194C27.1031 3.60018 26.9868 3.37722 26.7982 3.19794C26.6183 3.01914 26.3436 2.89142 25.9853 2.82044C25.5104 2.72636 25.1198 2.75177 24.816 2.90056C24.5121 3.04938 24.3243 3.28776 24.2542 3.61398C24.2356 3.70092 24.2208 3.80118 24.2099 3.9147C24.1987 4.02985 24.2119 4.18632 24.2482 4.38306L26.5545 14.0021C26.6205 14.3247 26.7763 14.6111 27.0196 14.8527C27.2648 15.0961 27.6379 15.2665 28.1354 15.3656L28.39 15.4065C28.5995 15.4482 28.8868 15.4579 29.1613 15.4469C29.4371 15.4359 29.7054 15.4031 29.87 15.3603C30.2163 15.2631 30.5022 15.048 30.7262 14.7185L36.4271 4.56535C36.5184 4.43989 36.5906 4.29834 36.6314 4.17372C36.6867 4.03746 36.7255 3.91693 36.7474 3.81223C36.8149 3.48937 36.7175 3.18607 36.4664 2.91224C36.2284 2.62895 35.8702 2.43646 35.4018 2.34131Z" fill="white"/>
<path fill-rule="evenodd" clip-rule="evenodd" d="M43.4758 2.71606C42.4435 2.71606 41.5556 2.89909 40.8187 3.27303C40.091 3.64233 39.4869 4.13127 39.0134 4.73511C38.5532 5.33679 38.217 6.02535 38.0047 6.79665C37.8049 7.55165 37.7046 8.31995 37.7046 9.09805C37.7046 10.0533 37.8161 10.9211 38.0388 11.6908C38.2729 12.4491 38.6182 13.1077 39.0687 13.654C39.5317 14.1894 40.0962 14.6024 40.7603 14.8928C41.427 15.1723 42.1944 15.3116 43.0509 15.3116C43.7239 15.3116 44.2946 15.2302 44.7434 15.0652C45.1647 14.9233 45.5428 14.7159 45.8912 14.4429L46.1943 14.2021L46.2931 14.5767C46.3219 14.6859 46.3748 14.7903 46.4471 14.8897C46.543 14.9885 46.6819 15.079 46.8259 15.13C46.9845 15.1954 47.1975 15.2274 47.4308 15.2274C47.6715 15.2274 47.8774 15.2007 48.0365 15.1361C48.1888 15.0857 48.3411 14.9976 48.4308 14.8897C48.5081 14.7834 48.5573 14.6667 48.5739 14.5409C48.5958 14.4343 48.6097 14.3097 48.6097 14.2024V9.63715C48.6097 9.25255 48.5051 8.93665 48.2654 8.72605C48.0461 8.51705 47.758 8.40995 47.4308 8.40995H44.3257C43.9616 8.40995 43.6585 8.50245 43.4479 8.71615C43.2375 8.92945 43.1467 9.23555 43.1467 9.60335C43.1467 9.86235 43.2261 10.1119 43.3729 10.3389C43.561 10.6072 43.9026 10.7127 44.3257 10.7127H46.1505L46.0448 11.0434C45.9853 11.2299 45.9136 11.3975 45.8318 11.5438C45.6891 11.8065 45.4907 12.0651 45.2536 12.3C44.9865 12.5421 44.7004 12.7197 44.3979 12.8342C44.1058 12.9484 43.7495 13.0089 43.3287 13.0089C42.3489 13.0089 41.6361 12.6684 41.1605 12.0022C40.687 11.3219 40.4382 10.3476 40.4382 9.06435C40.4382 8.53815 40.4924 8.02365 40.5981 7.53165C40.714 7.04465 40.8924 6.62043 41.1301 6.25803C41.3659 5.88813 41.6735 5.59677 42.0522 5.38569C42.4364 5.16681 42.9046 5.05251 43.4595 5.05251C43.744 5.05251 43.9833 5.08089 44.172 5.13207C44.3655 5.17407 44.5395 5.23725 44.6872 5.31843C44.8376 5.40105 44.9886 5.51349 45.1204 5.63889C45.2679 5.75841 45.4314 5.90457 45.6023 6.06957C45.8199 6.27147 45.9991 6.43941 46.1401 6.57351C46.3203 6.74505 46.5616 6.82131 46.8425 6.82131C47.1962 6.82131 47.5051 6.70149 47.7456 6.46785C47.9833 6.22287 48.1031 5.92275 48.1031 5.57727C48.1031 5.32521 48.0364 5.08617 47.906 4.86255C47.7906 4.63887 47.6322 4.41285 47.4515 4.21491C46.9034 3.68457 46.3085 3.29679 45.6738 3.06315C45.0414 2.83033 44.3076 2.71606 43.4758 2.71606Z" fill="white"/>
<path fill-rule="evenodd" clip-rule="evenodd" d="M53.9057 4.07611C53.1918 4.42633 52.604 4.88485 52.1402 5.45107C51.6755 6.01837 51.3332 6.67477 51.1146 7.41905C50.8953 8.15145 50.7856 8.90605 50.7856 9.68295C50.7856 10.6984 50.9252 11.5763 51.2012 12.3187C51.4778 13.0478 51.8696 13.6497 52.3752 14.1273C52.8811 14.605 53.4965 14.9611 54.2238 15.1943C54.9681 15.4282 55.7951 15.5459 56.7056 15.5459C57.3335 15.5459 57.9694 15.4654 58.6133 15.3043C59.2706 15.1578 59.8352 14.9378 60.2969 14.6488C60.6479 14.4288 60.8869 14.2293 61.0235 14.052C61.1703 13.8642 61.2452 13.6495 61.2452 13.4074C61.2452 13.0642 61.1295 12.7556 60.8935 12.4778C60.6557 12.1973 60.4101 12.0719 60.1568 12.0719C59.907 12.0719 59.6982 12.1274 59.5262 12.2334C59.3315 12.3535 59.1163 12.4764 58.8924 12.596L58.0459 13.0198C57.7011 13.1762 57.2797 13.2539 56.7946 13.2539C55.8895 13.2539 55.1699 13.0334 54.6516 12.5774C54.1337 12.1219 53.8323 11.445 53.7349 10.564L53.7038 10.2826H60.2903C60.754 10.2826 61.0966 10.1993 61.323 10.0533C61.5435 9.91785 61.6681 9.66705 61.6681 9.25925C61.6681 7.40535 61.1912 6.00337 60.2538 5.03515C59.329 4.05133 58.0748 3.55249 56.4829 3.55249C55.4872 3.55249 54.6293 3.72841 53.9057 4.07611ZM56.4161 5.71063C55.7533 5.71063 55.1713 5.91193 54.6753 6.31531C54.2234 6.69535 53.949 7.23755 53.8512 7.92435L53.8099 8.21365H58.8128L58.7963 7.94465C58.7823 7.71585 58.7373 7.48785 58.6617 7.26055C58.5679 6.97885 58.4194 6.72073 58.2179 6.48739C58.0282 6.25057 57.7844 6.06247 57.4891 5.92231C57.1881 5.77951 56.8291 5.71063 56.4161 5.71063Z" fill="white"/>
<path d="M73.9483 15.2595C74.1801 15.0679 74.2951 14.8211 74.2951 14.4241V8.39644C74.2951 7.68974 74.2107 6.93 74.1681 6.642L74.1675 6.63534C74.0945 6.01974 73.868 5.46318 73.4871 4.9641C73.1199 4.50846 72.6808 4.16406 72.1693 3.92922L72.1615 3.92556C71.6673 3.67878 71.0359 3.552 70.2614 3.552C69.4617 3.552 68.7711 3.72984 68.1858 4.08132L68.1816 4.08366C68.0133 4.18098 67.5377 4.50672 67.0831 4.98108L66.6763 5.40534L66.647 4.818C66.6254 4.37802 66.4846 4.12014 66.257 3.99366L66.2492 3.98946C65.9671 3.82008 65.64 3.73392 65.2657 3.73392C64.7038 3.73392 64.3342 3.86046 64.1234 4.08348C63.9191 4.31634 63.8125 4.62084 63.8125 5.00724V14.4014C63.8125 14.8339 63.9413 15.1184 64.1743 15.2869C64.4211 15.4653 64.7655 15.561 65.2201 15.561C65.788 15.561 66.163 15.4624 66.3738 15.2913C66.5955 15.1086 66.7183 14.8066 66.7183 14.3559V8.99314C66.7153 8.80064 66.771 8.39324 66.8914 7.98344C67.119 7.21124 67.5407 6.67662 68.2685 6.3333C68.7938 6.08532 69.6456 5.92896 70.5028 6.27264C70.9449 6.44976 71.1551 6.90612 71.2605 7.30934C71.369 7.72684 71.3893 8.17624 71.3893 8.46464V14.4241C71.3893 14.8243 71.5103 15.083 71.7481 15.2551C71.9949 15.4336 72.3394 15.5292 72.794 15.5292C73.3619 15.5292 73.7375 15.4306 73.9483 15.2595Z" fill="white"/>
<path fill-rule="evenodd" clip-rule="evenodd" d="M12.4147 3.06467C14.4319 1.24526 17.5397 1.40841 19.3561 3.42905L19.5888 3.68783L19.5916 3.69089C20.6467 4.83233 21.2952 6.20315 21.2647 7.21315L21.2646 7.21545C21.259 7.46215 21.1896 7.71115 21.0506 7.93725L21.0337 7.96445C21.0241 7.97975 21.0107 8.00115 20.9934 8.02845C20.9587 8.08325 20.9086 8.16165 20.8443 8.26015C20.7159 8.45705 20.5303 8.73525 20.2971 9.06765C19.8327 9.72995 19.171 10.6199 18.3891 11.5163C17.6132 12.4057 16.6842 13.3417 15.6807 14.0661C14.7032 14.7716 13.4905 15.3965 12.178 15.3965C10.8805 15.3966 9.63252 14.7833 8.60624 14.0936C7.54665 13.3816 6.5345 12.4582 5.67337 11.575C4.80629 10.6856 4.05833 9.80175 3.52886 9.14315C3.26326 8.81275 3.05056 8.53645 2.90307 8.34115C2.82928 8.24335 2.77169 8.16575 2.73184 8.11155C2.71191 8.08455 2.6964 8.06325 2.68551 8.04825L2.66725 8.02305C2.53958 7.82145 2.45747 7.67805 2.41374 7.40145C2.34904 6.99215 2.45 6.46931 2.90525 6.07547C3.29184 5.74547 3.79768 5.68547 4.13313 5.76947C4.56442 5.86547 4.81544 6.08747 5.00203 6.33851L5.00314 6.34007L5.0119 6.35213C5.01963 6.36281 5.03188 6.37955 5.04844 6.40211C5.08158 6.44717 5.13194 6.51509 5.19803 6.60257C5.33029 6.77777 5.52498 7.03075 5.76997 7.33555C6.26171 7.94715 6.94776 8.75695 7.73198 9.56125C8.52214 10.3717 9.37854 11.142 10.2093 11.7002C11.073 12.2807 11.7371 12.5144 12.178 12.5144C12.5038 12.5144 12.9338 12.3845 13.4569 12.0814L13.8214 11.8702L13.5026 11.5946C13.4019 11.5076 13.3054 11.4132 13.214 11.3114L12.0509 10.0175C10.2345 7.99695 10.3974 4.88405 12.4147 3.06467ZM17.8695 7.51475C17.4492 8.10865 16.8789 8.86725 16.2222 9.62005L16.2071 9.63735L15.9977 9.87685L14.1951 8.09565L14.1892 8.08905C13.4361 7.25135 13.5037 5.96075 14.34 5.20649C15.1763 4.45223 16.4648 4.51985 17.2178 5.35757L17.4504 5.61635C17.6758 5.86709 17.8688 6.14531 17.9645 6.45581C18.0633 6.77591 18.0536 7.11435 17.8989 7.46305L17.8868 7.49035L17.8695 7.51475Z" fill="#B8FF26"/>
<defs>
<linearGradient id="paint0_linear_54_145" x1="77.0992" y1="0" x2="68.4826" y2="35.4171" gradientUnits="userSpaceOnUse">
<stop stop-color="#302E31"/>
<stop offset="0.52" stop-color="#10121A"/>
<stop offset="1" stop-color="#0C090D"/>
</linearGradient>
</defs>
</svg>
