<svg width="64" height="64" viewBox="0 0 64 64" fill="none" xmlns="http://www.w3.org/2000/svg">
<path d="M30.5963 13.7968C37.6082 8.12571 47.9331 8.86638 54.0475 15.6245L54.5688 16.199L55.1239 16.8195C57.874 19.9902 60.119 24.2497 59.9951 28.3312L59.9926 28.3287C59.9535 29.8063 59.5332 31.2934 58.7042 32.6313L58.6968 32.6457L58.6531 32.7137L58.6456 32.7234L58.5336 32.9051L58.1344 33.5209C57.9653 33.7783 57.7605 34.0873 57.5229 34.4371L56.7143 35.6032C55.6721 37.0798 54.2301 39.0199 52.5155 41.0426L51.7631 41.9126C50.0049 43.9155 47.8409 46.1311 45.404 48.0334L44.3446 48.8285C41.6307 50.7747 37.614 52.9998 32.8393 53C28.7413 53 25.1102 51.3521 22.4081 49.6987L21.3097 48.9933C18.7078 47.256 16.2941 45.1323 14.2516 43.12L13.3992 42.2641C11.7154 40.5482 10.2143 38.8509 9.00069 37.4065L7.88766 36.0564C7.54844 35.637 7.24126 35.2515 6.97191 34.9074L6.2778 34.0057L5.82481 33.4045C5.77021 33.3308 5.72737 33.2709 5.69573 33.2275L5.69086 33.2203L5.64458 33.1548L5.63484 33.1426C2.83687 29.2719 3.71745 23.8735 7.61001 21.0858L7.97777 20.8337C11.8369 18.3548 17.0126 19.3022 19.7242 23.0492L19.7314 23.0613L19.7997 23.1559C19.8678 23.2479 19.9783 23.3937 20.1236 23.5849L21.4071 25.2211L22.3252 26.3313C22.9313 27.0524 23.6165 27.838 24.3565 28.6462C23.8535 23.463 25.7423 18.1183 29.9289 14.3665L30.5963 13.7968ZM50.7206 18.6085C46.0644 13.4617 38.0955 13.0459 32.9246 17.6801C27.7542 22.3143 27.3383 30.2434 31.9941 35.3897L34.8023 38.4949C35.0435 38.7615 35.2986 39.0107 35.5647 39.2391C34.3591 39.9329 33.4496 40.1818 32.8393 40.1821C31.9896 40.1821 30.5309 39.7159 28.4846 38.3495C26.5351 37.0478 24.5039 35.2376 22.6126 33.3099C20.7387 31.4001 19.098 29.4727 17.9194 28.0159C17.3331 27.2912 16.8664 26.691 16.5507 26.2755C16.3932 26.0683 16.2735 25.9063 16.1951 25.8005C16.1559 25.7475 16.1254 25.7086 16.1074 25.6841L16.088 25.655C14.7329 23.7827 12.1079 23.3568 10.2257 24.7048C8.34351 26.0532 7.91649 28.6658 9.27103 30.5393L9.31729 30.6024C9.34443 30.6394 9.38276 30.6937 9.43176 30.76C9.52973 30.8923 9.67078 31.0807 9.85067 31.3175C10.2108 31.7913 10.7308 32.4595 11.3777 33.259C12.6665 34.8521 14.4885 36.993 16.6043 39.1495C18.7026 41.2879 21.1862 43.5439 23.8036 45.2919C26.3243 46.975 29.4889 48.5423 32.8393 48.5423C36.2331 48.542 39.3136 46.9405 41.724 45.2117C44.2107 43.4282 46.4964 41.1365 48.3898 38.9797C50.3006 36.8031 51.9147 34.6446 53.0465 33.0409C53.6151 32.2354 54.0695 31.561 54.3837 31.0824C54.5408 30.8429 54.6633 30.652 54.7488 30.5175C54.7915 30.451 54.8249 30.3978 54.8489 30.3599L54.8927 30.2921C55.2985 29.6373 55.4995 28.9128 55.5162 28.1954C55.5975 25.5023 53.8922 22.0358 51.2808 19.229L50.7206 18.6085ZM38.5457 23.8928C40.2693 22.3481 42.9266 22.4851 44.4785 24.2006L45.0387 24.8236C46.0582 25.9506 46.6026 27.1318 46.0006 28.4814C44.9945 29.894 43.6311 31.6958 42.0649 33.4797L42.0285 33.5209L38.2362 29.7952C36.6845 28.0797 36.8224 25.4375 38.5457 23.8928Z" fill="white"/>
</svg>
